<?xml version="1.0" encoding="utf-8"?>
<!-- Generator: Adobe Illustrator 16.0.0, SVG Export Plug-In . SVG Version: 6.00 Build 0)  -->
<!DOCTYPE svg PUBLIC "-//W3C//DTD SVG 1.1//EN" "http://www.w3.org/Graphics/SVG/1.1/DTD/svg11.dtd">
<svg version="1.1" id="Layer_3" xmlns="http://www.w3.org/2000/svg" xmlns:xlink="http://www.w3.org/1999/xlink" x="0px" y="0px"
	 width="34.24px" height="46.875px" viewBox="-32.5 0.75 34.24 46.875" enable-background="new -32.5 0.75 34.24 46.875"
	 xml:space="preserve">
<g>
	<g>
		<path d="M-23.822,9.459c2.316-1.444,5.286-2.227,8.007-2.306c1.508-0.044,3.01,0.191,4.474,0.532
			c1.521,0.354,2.876,0.947,4.278,1.622c0.565,0.272,1.239,0.16,1.575-0.413C-5.189,8.385-5.335,7.591-5.9,7.319
			c-1.578-0.76-3.121-1.442-4.829-1.854c-1.656-0.4-3.38-0.639-5.086-0.614c-1.581,0.022-3.199,0.359-4.723,0.761
			c-1.551,0.409-3.083,1.009-4.446,1.859C-26.241,8.254-25.086,10.247-23.822,9.459L-23.822,9.459z"/>
		<path d="M-0.772,17.942c-0.893-1.121-1.619-2.363-2.663-3.359c-1.138-1.085-2.434-2.105-3.807-2.875
			c-2.682-1.503-5.859-2.235-8.928-2.142c-2.927,0.09-5.912,1.076-8.282,2.799c-2.302,1.674-3.945,3.996-5.714,6.185
			c-0.394,0.487-0.479,1.149,0,1.628c0.408,0.409,1.233,0.489,1.628,0c1.592-1.969,3.077-4.151,5.101-5.714
			c2.066-1.594,4.67-2.478,7.267-2.595c2.749-0.125,5.553,0.586,7.944,1.927c1.205,0.675,2.309,1.601,3.306,2.551
			c0.985,0.939,1.676,2.163,2.52,3.223c0.392,0.492,1.222,0.406,1.628,0C-0.292,19.089-0.382,18.433-0.772,17.942L-0.772,17.942z"/>
		<path d="M-5.756,28.945c-0.279-3.088-1.627-6.164-4.119-8.097c-2.196-1.705-5.02-2.452-7.744-1.746
			c-2.639,0.685-4.878,2.849-6.023,5.27c-1.218,2.575-1.395,5.493-1.017,8.281c0.283,2.079,0.944,4.098,1.811,6.003
			c0.809,1.779,1.935,3.565,3.488,4.785c0.493,0.387,1.145,0.482,1.628,0c0.404-0.404,0.495-1.24,0-1.629
			c-2.001-1.57-3.161-4.046-3.928-6.414c-0.806-2.488-1.16-5.15-0.652-7.738c0.491-2.503,1.896-4.631,4.145-5.879
			c2.142-1.188,4.707-0.653,6.645,0.689c2.058,1.425,3.245,4.04,3.465,6.475c0.057,0.625,0.481,1.152,1.151,1.152
			C-6.323,30.098-5.7,29.572-5.756,28.945L-5.756,28.945z"/>
		<path d="M-16.499,29.383c-0.392,5.607,5.211,10.996,10.84,9.879c0.616-0.123,0.961-0.846,0.804-1.416
			c-0.175-0.638-0.801-0.927-1.416-0.805c-2.067,0.41-4.256-0.658-5.712-2.076c-1.499-1.459-2.36-3.486-2.213-5.582
			c0.044-0.627-0.557-1.151-1.151-1.151C-16.008,28.23-16.455,28.757-16.499,29.383L-16.499,29.383z"/>
		<path d="M-10.826,40.786c-2.174-0.313-3.963-1.954-5.232-3.773c-1.433-2.056-2.352-4.552-2.183-7.078
			c0.076-1.126,0.521-2.344,1.313-3.211c0.749-0.819,1.619-1.099,2.603-0.782c1.963,0.63,2.016,3.181,2.629,4.966
			c0.392,1.14,0.995,2.171,1.982,2.889c1.116,0.813,2.529,1.058,3.867,0.788c2.987-0.6,4.359-3.919,4.237-6.654
			c-0.146-3.265-1.717-6.383-3.755-8.873c-1.759-2.149-4.336-3.66-7.015-4.327c-2.449-0.61-5.103-0.48-7.457,0.438
			c-2.494,0.973-4.583,2.784-6.156,4.927c-2.985,4.066-2.831,9.392-2.718,14.189c0.035,1.482,2.338,1.485,2.303,0
			c-0.062-2.637-0.164-5.36,0.303-7.942c0.434-2.401,1.439-4.531,3.144-6.301c1.833-1.904,4.161-3.186,6.826-3.363
			c2.591-0.173,5.111,0.664,7.207,2.166c2.323,1.665,3.938,4.422,4.688,7.139c0.607,2.203,0.544,5.594-2.081,6.348
			c-0.932,0.269-1.925-0.164-2.531-0.844c-0.136-0.152-0.462-0.764-0.538-0.958c-0.2-0.51-0.34-1.043-0.481-1.571
			c-0.283-1.061-0.566-2.137-1.132-3.088c-0.678-1.139-1.847-1.972-3.137-2.265c-2.4-0.546-4.542,1.104-5.57,3.158
			c-1.083,2.162-1.03,4.686-0.414,6.975c0.612,2.276,1.844,4.393,3.419,6.135c1.358,1.503,3.22,2.84,5.266,3.135
			c0.621,0.09,1.234-0.143,1.416-0.804C-9.871,41.655-10.204,40.876-10.826,40.786L-10.826,40.786z"/>
	</g>
</g>
<g>
	<g>
		<path fill="#FFFFFF" d="M8.413,9.459c2.316-1.444,5.286-2.227,8.007-2.306c1.508-0.044,3.01,0.191,4.474,0.532
			c1.522,0.354,2.877,0.947,4.278,1.622c0.565,0.272,1.24,0.16,1.576-0.413c0.297-0.509,0.151-1.303-0.414-1.575
			c-1.578-0.76-3.12-1.442-4.828-1.854c-1.656-0.4-3.381-0.639-5.086-0.614c-1.581,0.022-3.199,0.359-4.723,0.761
			C10.146,6.02,8.614,6.621,7.251,7.471C5.994,8.254,7.149,10.247,8.413,9.459L8.413,9.459z"/>
		<path fill="#FFFFFF" d="M31.463,17.942c-0.893-1.121-1.619-2.363-2.664-3.359c-1.138-1.085-2.434-2.105-3.807-2.875
			c-2.682-1.503-5.859-2.235-8.928-2.142c-2.927,0.09-5.912,1.076-8.282,2.799c-2.302,1.674-3.945,3.996-5.715,6.185
			c-0.394,0.487-0.478,1.149,0,1.628c0.409,0.409,1.233,0.489,1.628,0c1.592-1.969,3.076-4.151,5.101-5.714
			c2.065-1.594,4.67-2.478,7.267-2.595c2.748-0.125,5.553,0.586,7.944,1.927c1.205,0.675,2.309,1.601,3.306,2.551
			c0.984,0.939,1.676,2.163,2.52,3.223c0.393,0.492,1.223,0.406,1.629,0C31.943,19.089,31.854,18.433,31.463,17.942L31.463,17.942z"
			/>
		<path fill="#FFFFFF" d="M26.479,28.945c-0.279-3.088-1.627-6.164-4.119-8.097c-2.196-1.705-5.02-2.452-7.744-1.746
			c-2.639,0.685-4.878,2.849-6.023,5.27c-1.218,2.575-1.395,5.493-1.017,8.281c0.283,2.079,0.944,4.098,1.811,6.003
			c0.809,1.779,1.935,3.565,3.487,4.785c0.493,0.387,1.145,0.482,1.628,0c0.404-0.404,0.495-1.24,0-1.629
			c-2.001-1.57-3.161-4.046-3.928-6.414c-0.806-2.488-1.16-5.15-0.652-7.738c0.491-2.503,1.896-4.631,4.145-5.879
			c2.142-1.188,4.707-0.653,6.645,0.689c2.059,1.425,3.245,4.04,3.465,6.475c0.057,0.625,0.481,1.152,1.152,1.152
			C25.912,30.098,26.535,29.572,26.479,28.945L26.479,28.945z"/>
		<path fill="#FFFFFF" d="M15.736,29.383c-0.392,5.607,5.211,10.996,10.84,9.879c0.615-0.123,0.961-0.846,0.804-1.416
			c-0.175-0.638-0.802-0.927-1.416-0.805c-2.067,0.41-4.256-0.658-5.712-2.076c-1.498-1.459-2.359-3.486-2.213-5.582
			c0.043-0.627-0.557-1.151-1.151-1.151C16.227,28.23,15.78,28.757,15.736,29.383L15.736,29.383z"/>
		<path fill="#FFFFFF" d="M21.409,40.786c-2.175-0.313-3.963-1.954-5.232-3.773c-1.433-2.056-2.352-4.552-2.183-7.078
			c0.075-1.126,0.521-2.344,1.313-3.211c0.749-0.819,1.619-1.099,2.603-0.782c1.963,0.63,2.017,3.181,2.63,4.966
			c0.392,1.14,0.995,2.171,1.982,2.889c1.116,0.813,2.528,1.058,3.867,0.788c2.987-0.6,4.359-3.919,4.237-6.654
			c-0.146-3.265-1.718-6.383-3.756-8.873c-1.759-2.149-4.336-3.66-7.016-4.327c-2.448-0.61-5.102-0.48-7.456,0.438
			c-2.494,0.973-4.583,2.784-6.156,4.927c-2.985,4.066-2.831,9.392-2.718,14.189c0.035,1.482,2.337,1.485,2.303,0
			c-0.062-2.637-0.164-5.36,0.303-7.942c0.434-2.401,1.439-4.531,3.144-6.301c1.833-1.904,4.161-3.186,6.826-3.363
			c2.591-0.173,5.112,0.664,7.207,2.166c2.323,1.665,3.938,4.422,4.688,7.139c0.607,2.203,0.544,5.594-2.08,6.348
			c-0.932,0.269-1.925-0.164-2.53-0.844c-0.137-0.152-0.463-0.764-0.539-0.958c-0.199-0.51-0.34-1.043-0.48-1.571
			c-0.283-1.061-0.566-2.137-1.133-3.088c-0.678-1.139-1.847-1.972-3.137-2.265c-2.4-0.546-4.542,1.104-5.57,3.158
			c-1.083,2.162-1.03,4.686-0.415,6.975c0.612,2.276,1.845,4.393,3.42,6.135c1.358,1.503,3.22,2.84,5.266,3.135
			c0.621,0.09,1.234-0.143,1.416-0.804C22.363,41.655,22.031,40.876,21.409,40.786L21.409,40.786z"/>
	</g>
</g>
</svg>
