<?xml version="1.0" encoding="utf-8"?>
<!-- Generator: Adobe Illustrator 16.0.0, SVG Export Plug-In . SVG Version: 6.00 Build 0)  -->
<!DOCTYPE svg PUBLIC "-//W3C//DTD SVG 1.1//EN" "http://www.w3.org/Graphics/SVG/1.1/DTD/svg11.dtd">
<svg version="1.1" id="Layer_3" xmlns="http://www.w3.org/2000/svg" xmlns:xlink="http://www.w3.org/1999/xlink" x="0px" y="0px"
	 width="34px" height="50px" viewBox="0 0 295.333 368.981" enable-background="new 0 0 295.333 368.981"
	 xml:space="preserve">
<g>
	<g>
		<path d="M-206.925,49.497c20.118-12.547,45.912-19.339,69.551-20.032c13.102-0.384,26.143,1.66,38.863,4.621
			c13.219,3.076,24.986,8.223,37.164,14.089c4.91,2.365,10.766,1.391,13.682-3.587c2.587-4.417,1.322-11.317-3.588-13.682
			c-13.706-6.602-27.104-12.524-41.94-16.105c-14.389-3.472-29.364-5.548-44.181-5.335c-13.728,0.198-27.789,3.118-41.022,6.608
			c-13.47,3.552-26.782,8.769-38.622,16.154C-227.934,39.035-217.901,56.343-206.925,49.497L-206.925,49.497z"/>
		<path d="M-6.709,123.184c-7.752-9.735-14.06-20.528-23.131-29.176c-9.887-9.427-21.146-18.286-33.068-24.967
			c-23.298-13.057-50.896-19.417-77.553-18.602c-25.421,0.778-51.353,9.349-71.937,24.311
			c-19.999,14.537-34.267,34.712-49.638,53.724c-3.423,4.235-4.156,9.986,0,14.143c3.549,3.548,10.71,4.245,14.143,0
			c13.832-17.109,26.722-36.063,44.31-49.638c17.942-13.848,40.567-21.519,63.122-22.54c23.877-1.081,48.232,5.097,69.008,16.74
			c10.467,5.865,20.054,13.899,28.712,22.154c8.556,8.157,14.562,18.792,21.89,27.995c3.401,4.271,10.615,3.527,14.143,0
			C-2.532,133.148-3.317,127.444-6.709,123.184L-6.709,123.184z"/>
		<path d="M-50.001,218.766c-2.426-26.832-14.134-53.543-35.779-70.34c-19.077-14.804-43.605-21.297-67.265-15.161
			c-22.918,5.943-42.376,24.745-52.32,45.771c-10.58,22.369-12.118,47.719-8.83,71.931c2.454,18.067,8.198,35.594,15.727,52.15
			c7.025,15.452,16.803,30.965,30.293,41.559c4.283,3.363,9.945,4.197,14.143,0c3.507-3.508,4.295-10.77,0-14.143
			c-17.381-13.647-27.459-35.148-34.121-55.715c-7.002-21.62-10.078-44.739-5.666-67.221c4.267-21.744,16.47-40.223,36.004-51.065
			c18.604-10.326,40.88-5.67,57.715,5.985c17.877,12.375,28.188,35.09,30.101,56.249c0.49,5.427,4.178,10,10,10
			C-54.922,228.766-49.51,224.203-50.001,218.766L-50.001,218.766z"/>
		<path d="M-143.31,222.557c-3.405,48.715,45.261,95.521,94.156,85.812c5.35-1.063,8.35-7.339,6.984-12.301
			c-1.522-5.537-6.96-8.045-12.301-6.984c-17.957,3.565-36.969-5.717-49.614-18.032c-13.019-12.677-20.498-30.292-19.226-48.494
			c0.381-5.444-4.837-10-10-10C-139.048,212.557-142.93,217.121-143.31,222.557L-143.31,222.557z"/>
		<path d="M-94.036,321.613c-18.883-2.724-34.427-16.976-45.445-32.779c-12.445-17.851-20.43-39.535-18.961-61.479
			c0.654-9.78,4.528-20.358,11.409-27.894c6.502-7.121,14.058-9.54,22.608-6.794c17.05,5.474,17.512,27.631,22.842,43.133
			c3.405,9.905,8.641,18.854,17.22,25.095c9.695,7.055,21.963,9.186,33.589,6.849c25.947-5.217,37.866-34.047,36.805-57.808
			c-1.268-28.354-14.917-55.446-32.617-77.068c-15.284-18.67-37.662-31.787-60.938-37.586c-21.273-5.299-44.322-4.168-64.772,3.806
			c-21.664,8.447-39.81,24.185-53.472,42.793c-25.931,35.317-24.585,81.579-23.604,123.256c0.303,12.876,20.304,12.905,20,0
			c-0.539-22.905-1.421-46.563,2.632-68.991c3.77-20.857,12.503-39.355,27.308-54.732c15.926-16.541,36.145-27.673,59.291-29.215
			c22.507-1.5,44.398,5.771,62.598,18.815c20.177,14.461,34.21,38.416,40.718,62.012c5.275,19.13,4.726,48.591-18.071,55.141
			c-8.092,2.325-16.719-1.431-21.983-7.337c-1.181-1.324-4.011-6.637-4.672-8.319c-1.741-4.428-2.957-9.06-4.18-13.651
			c-2.453-9.208-4.921-18.552-9.835-26.814c-5.889-9.898-16.044-17.132-27.249-19.682c-20.851-4.746-39.449,9.594-48.382,27.434
			c-9.403,18.78-8.944,40.695-3.599,60.574c5.317,19.776,16.02,38.162,29.703,53.296c11.799,13.05,27.967,24.668,45.742,27.231
			c5.391,0.777,10.722-1.241,12.301-6.984C-85.745,329.163-88.631,322.393-94.036,321.613L-94.036,321.613z"/>
	</g>
</g>
<g>
	<g>
		<path fill="#FFFFFF" d="M73.075,49.497c20.118-12.547,45.912-19.339,69.551-20.032c13.102-0.384,26.143,1.66,38.863,4.621
			c13.219,3.076,24.986,8.223,37.164,14.089c4.91,2.365,10.766,1.391,13.682-3.587c2.587-4.417,1.322-11.317-3.588-13.682
			c-13.706-6.602-27.104-12.524-41.94-16.105c-14.389-3.472-29.364-5.548-44.181-5.335c-13.728,0.198-27.789,3.118-41.022,6.608
			c-13.47,3.552-26.782,8.769-38.622,16.154C52.066,39.035,62.099,56.343,73.075,49.497L73.075,49.497z"/>
		<path fill="#FFFFFF" d="M273.291,123.184c-7.752-9.735-14.06-20.528-23.131-29.176c-9.887-9.427-21.146-18.286-33.068-24.967
			c-23.298-13.057-50.896-19.417-77.553-18.602c-25.421,0.778-51.353,9.349-71.937,24.311
			c-19.999,14.537-34.267,34.712-49.638,53.724c-3.424,4.235-4.156,9.986,0,14.143c3.549,3.548,10.71,4.245,14.143,0
			c13.832-17.109,26.722-36.063,44.31-49.638c17.942-13.848,40.567-21.519,63.122-22.54c23.877-1.081,48.232,5.097,69.008,16.74
			c10.467,5.865,20.054,13.899,28.712,22.154c8.556,8.157,14.562,18.792,21.89,27.995c3.401,4.271,10.615,3.527,14.143,0
			C277.468,133.148,276.683,127.444,273.291,123.184L273.291,123.184z"/>
		<path fill="#FFFFFF" d="M229.999,218.766c-2.426-26.832-14.134-53.543-35.779-70.34c-19.077-14.804-43.605-21.297-67.265-15.161
			c-22.918,5.943-42.376,24.745-52.32,45.771c-10.58,22.369-12.118,47.719-8.83,71.931c2.454,18.067,8.198,35.594,15.727,52.15
			c7.025,15.452,16.803,30.965,30.293,41.559c4.283,3.363,9.945,4.197,14.143,0c3.507-3.508,4.295-10.77,0-14.143
			c-17.381-13.647-27.459-35.148-34.121-55.715c-7.002-21.62-10.078-44.739-5.666-67.221c4.267-21.744,16.47-40.223,36.004-51.065
			c18.604-10.326,40.88-5.67,57.715,5.985c17.877,12.375,28.188,35.09,30.101,56.249c0.49,5.427,4.178,10,10,10
			C225.078,228.766,230.49,224.203,229.999,218.766L229.999,218.766z"/>
		<path fill="#FFFFFF" d="M136.69,222.557c-3.405,48.715,45.261,95.521,94.156,85.812c5.35-1.063,8.35-7.339,6.984-12.301
			c-1.522-5.537-6.96-8.045-12.301-6.984c-17.957,3.565-36.969-5.717-49.614-18.032c-13.019-12.677-20.498-30.292-19.226-48.494
			c0.381-5.444-4.837-10-10-10C140.952,212.557,137.07,217.121,136.69,222.557L136.69,222.557z"/>
		<path fill="#FFFFFF" d="M185.964,321.613c-18.883-2.724-34.427-16.976-45.445-32.779c-12.445-17.851-20.43-39.535-18.961-61.479
			c0.654-9.78,4.528-20.358,11.409-27.894c6.502-7.121,14.058-9.54,22.608-6.794c17.05,5.474,17.512,27.631,22.842,43.133
			c3.405,9.905,8.641,18.854,17.22,25.095c9.695,7.055,21.963,9.186,33.589,6.849c25.947-5.217,37.866-34.047,36.805-57.808
			c-1.268-28.354-14.917-55.446-32.617-77.068c-15.284-18.67-37.662-31.787-60.938-37.586c-21.273-5.299-44.322-4.168-64.772,3.806
			c-21.664,8.447-39.81,24.185-53.472,42.793c-25.931,35.317-24.585,81.579-23.604,123.256c0.303,12.876,20.304,12.905,20,0
			c-0.539-22.905-1.421-46.563,2.632-68.991c3.77-20.857,12.503-39.355,27.308-54.732c15.926-16.541,36.145-27.673,59.291-29.215
			c22.507-1.5,44.398,5.771,62.598,18.815c20.177,14.461,34.21,38.416,40.718,62.012c5.275,19.13,4.726,48.591-18.071,55.141
			c-8.092,2.325-16.719-1.431-21.983-7.337c-1.181-1.324-4.011-6.637-4.672-8.319c-1.741-4.428-2.957-9.06-4.18-13.651
			c-2.453-9.208-4.921-18.552-9.835-26.814c-5.889-9.898-16.044-17.132-27.249-19.682c-20.851-4.746-39.449,9.594-48.382,27.434
			c-9.403,18.78-8.944,40.695-3.599,60.574c5.317,19.776,16.02,38.162,29.703,53.296c11.799,13.05,27.967,24.668,45.742,27.231
			c5.391,0.777,10.722-1.241,12.301-6.984C194.255,329.163,191.369,322.393,185.964,321.613L185.964,321.613z"/>
	</g>
</g>
</svg>
